<?xml version="1.0" encoding="UTF-8" standalone="no"?>
<svg
   xmlns:dc="http://purl.org/dc/elements/1.1/"
   xmlns:cc="http://creativecommons.org/ns#"
   xmlns:rdf="http://www.w3.org/1999/02/22-rdf-syntax-ns#"
   xmlns:svg="http://www.w3.org/2000/svg"
   xmlns="http://www.w3.org/2000/svg"
   xmlns:sodipodi="http://sodipodi.sourceforge.net/DTD/sodipodi-0.dtd"
   xmlns:inkscape="http://www.inkscape.org/namespaces/inkscape"
   inkscape:version="1.0 (4035a4fb49, 2020-05-01)"
   sodipodi:docname="cap.svg"
   id="svg110"
   preserveAspectRatio="xMidYMid meet"
   viewBox="0 0 332.000000 186.000000"
   height="186.000000pt"
   width="332.000000pt"
   version="1.0">
  <metadata
     id="metadata116">
    <rdf:RDF>
      <cc:Work
         rdf:about="">
        <dc:format>image/svg+xml</dc:format>
        <dc:type
           rdf:resource="http://purl.org/dc/dcmitype/StillImage" />
      </cc:Work>
    </rdf:RDF>
  </metadata>
  <defs
     id="defs114" />
  <sodipodi:namedview
     inkscape:current-layer="svg110"
     inkscape:window-maximized="0"
     inkscape:window-y="0"
     inkscape:window-x="0"
     inkscape:cy="124"
     inkscape:cx="133.41436"
     inkscape:zoom="2.1895161"
     showgrid="false"
     id="namedview112"
     inkscape:window-height="794"
     inkscape:window-width="1331"
     inkscape:pageshadow="2"
     inkscape:pageopacity="0"
     guidetolerance="10"
     gridtolerance="10"
     objecttolerance="10"
     borderopacity="1"
     bordercolor="#666666"
     pagecolor="#ffffff" />
  <g
     style="fill:#ffffff;fill-opacity:1"
     id="g108"
     stroke="none"
     fill="#000000"
     transform="translate(0.000000,186.000000) scale(0.100000,-0.100000)">
    <path
       style="fill:#ffffff;fill-opacity:1"
       id="path102"
       d="M1890 1835 c-273 -44 -507 -161 -682 -343 -169 -176 -277 -391 -336 -670 l-20 -94 21 6 c175 51 507 21 1008 -90 280 -61 614 -161 720 -215 20 -10 74 -27 120 -39 139 -35 348 -100 442 -137 49 -19 91 -32 94 -29 19 19 45 209 50 369 10 322 -43 545 -182 751 -165 248 -428 408 -790 481 -141 29 -303 32 -445 10z" />
    <path
       style="fill:#ffffff;fill-opacity:1"
       id="path104"
       d="M913 715 c-35 -8 -67 -16 -72 -19 -4 -3 -118 -39 -252 -80 -358 -110 -421 -138 -496 -219 -56 -61 -83 -116 -83 -172 0 -99 54 -146 165 -143 l70 1 -60 6 c-68 7 -94 19 -124 57 -62 78 23 211 186 293 163 82 406 64 624 -45 36 -18 129 -74 205 -124 161 -106 347 -200 454 -230 97 -27 246 -36 336 -21 97 17 184 49 382 140 190 87 316 157 351 195 l23 24 -49 22 c-161 73 -525 175 -848 239 -427 85 -668 107 -812 76z" />
    <path
       style="fill:#ffffff;fill-opacity:1"
       id="path106"
       d="M323 440 c-34 -11 -90 -39 -125 -63 -123 -83 -163 -176 -97 -231 18 -15 44 -26 62 -27 75 -2 124 4 186 23 101 31 336 125 436 175 89 45 89 45 63 59 -15 8 -69 28 -120 45 -80 28 -110 32 -218 36 -105 3 -135 0 -187 -17z" />
  </g>
</svg>
