<?xml version="1.0" standalone="no"?>
<!DOCTYPE svg PUBLIC "-//W3C//DTD SVG 20010904//EN"
 "http://www.w3.org/TR/2001/REC-SVG-20010904/DTD/svg10.dtd">
<svg version="1.0" xmlns="http://www.w3.org/2000/svg"
 width="332.000000pt" height="186.000000pt" viewBox="0 0 332.000000 186.000000"
 preserveAspectRatio="xMidYMid meet">

<g transform="translate(0.000000,186.000000) scale(0.100000,-0.100000)"
fill="#000000" stroke="none">
<path d="M1890 1835 c-273 -44 -507 -161 -682 -343 -169 -176 -277 -391 -336
-670 l-20 -94 21 6 c175 51 507 21 1008 -90 280 -61 614 -161 720 -215 20 -10
74 -27 120 -39 139 -35 348 -100 442 -137 49 -19 91 -32 94 -29 19 19 45 209
50 369 10 322 -43 545 -182 751 -165 248 -428 408 -790 481 -141 29 -303 32
-445 10z"/>
<path d="M913 715 c-35 -8 -67 -16 -72 -19 -4 -3 -118 -39 -252 -80 -358 -110
-421 -138 -496 -219 -56 -61 -83 -116 -83 -172 0 -99 54 -146 165 -143 l70 1
-60 6 c-68 7 -94 19 -124 57 -62 78 23 211 186 293 163 82 406 64 624 -45 36
-18 129 -74 205 -124 161 -106 347 -200 454 -230 97 -27 246 -36 336 -21 97
17 184 49 382 140 190 87 316 157 351 195 l23 24 -49 22 c-161 73 -525 175
-848 239 -427 85 -668 107 -812 76z"/>
<path d="M323 440 c-34 -11 -90 -39 -125 -63 -123 -83 -163 -176 -97 -231 18
-15 44 -26 62 -27 75 -2 124 4 186 23 101 31 336 125 436 175 89 45 89 45 63
59 -15 8 -69 28 -120 45 -80 28 -110 32 -218 36 -105 3 -135 0 -187 -17z"/>
</g>
</svg>
