<?xml version="1.0" standalone="no"?>
<!DOCTYPE svg PUBLIC "-//W3C//DTD SVG 20010904//EN"
 "http://www.w3.org/TR/2001/REC-SVG-20010904/DTD/svg10.dtd">
<svg version="1.0" xmlns="http://www.w3.org/2000/svg"
 width="438.000000pt" height="385.000000pt" viewBox="0 0 438.000000 385.000000"
 preserveAspectRatio="xMidYMid meet">

<g transform="translate(0.000000,385.000000) scale(0.100000,-0.100000)"
fill="#000000" stroke="none">
<path d="M2082 3832 c-63 -23 -94 -49 -90 -76 3 -20 10 -21 196 -24 172 -2
193 -1 199 14 9 25 -8 47 -61 73 -66 33 -171 39 -244 13z"/>
<path d="M1955 3688 c-496 -26 -964 -394 -1215 -957 -167 -374 -246 -786 -257
-1345 -5 -245 -4 -288 8 -283 384 160 725 250 1144 302 725 90 1503 -2 2127
-251 75 -30 139 -54 142 -54 21 0 -3 543 -34 787 -106 829 -447 1409 -987
1678 -115 57 -250 102 -344 115 -94 13 -416 17 -584 8z m693 -323 c19 -42 14
-78 -22 -151 -60 -120 -185 -248 -342 -351 -11 -7 -2 -5 18 4 21 9 40 14 43
11 12 -11 -18 -56 -48 -72 -31 -16 -27 -17 21 -1 43 13 21 -28 -28 -53 l-45
-22 50 6 50 7 -20 -22 c-11 -13 -33 -29 -50 -37 l-30 -14 33 3 c17 2 32 1 32
-3 0 -10 -32 -36 -55 -45 -18 -7 -18 -8 10 -21 17 -7 57 -16 89 -20 l60 -7
-28 -23 c-20 -18 -40 -24 -74 -25 l-47 0 49 -20 c70 -28 131 -73 158 -116 32
-52 32 -159 0 -220 -12 -23 -25 -44 -30 -47 -4 -2 -6 26 -4 63 6 110 -42 200
-154 290 -35 29 -63 55 -60 59 2 4 -14 19 -35 34 -60 43 -35 7 50 -70 43 -39
86 -86 95 -105 18 -38 22 -142 6 -152 -6 -4 -10 8 -10 30 0 52 -23 91 -100
170 -38 39 -81 90 -95 115 -15 26 -24 35 -20 20 11 -40 40 -82 94 -135 44 -42
51 -55 51 -87 0 -45 20 -97 43 -117 27 -21 20 -34 -13 -27 -31 6 -31 6 -25
-32 25 -154 39 -182 88 -182 18 0 42 -6 52 -14 16 -12 17 -16 6 -30 -9 -10
-18 -13 -25 -7 -33 28 -182 24 -211 -5 -17 -17 -35 -11 -35 13 0 12 -3 13 -14
4 -10 -9 -16 -9 -21 -1 -8 13 12 40 30 40 8 0 15 5 17 12 3 9 16 10 51 1 26
-5 47 -7 47 -4 0 3 -9 29 -19 56 -10 28 -24 76 -31 109 -9 42 -15 55 -23 47
-19 -19 -29 -12 -23 15 8 32 -3 95 -18 99 -6 2 -42 10 -81 19 -180 42 -268
129 -269 267 0 95 34 152 155 253 106 89 133 127 106 153 -15 16 -86 21 -108
7 -19 -12 -8 -35 20 -40 19 -4 28 -11 24 -20 -8 -22 -42 -27 -68 -10 -19 12
-25 13 -25 4 -1 -16 -35 -58 -48 -58 -24 0 -22 36 3 57 l26 23 -29 -6 c-16 -3
-32 -2 -36 4 -8 13 46 34 75 30 20 -2 24 1 22 20 -2 14 3 22 12 22 8 0 15 5
15 11 0 7 -11 9 -30 6 -37 -8 -39 5 -5 31 14 11 25 25 25 31 0 6 7 11 15 11 8
0 15 -4 15 -10 0 -16 37 -12 44 5 8 21 62 19 132 -6 37 -13 73 -19 97 -16 27
4 37 1 37 -9 0 -17 -32 -34 -65 -34 -22 0 -26 -3 -20 -17 16 -39 16 -52 0 -83
-10 -18 -37 -54 -61 -80 -68 -72 -100 -159 -74 -200 14 -22 26 -3 45 70 24 94
53 138 150 220 140 121 214 234 200 307 -7 41 8 42 38 1 46 -61 -17 -175 -168
-306 -113 -98 -146 -141 -176 -229 -12 -36 -30 -74 -40 -84 -11 -11 -14 -19
-9 -19 19 0 56 48 70 89 19 59 58 101 166 177 53 37 120 95 150 128 65 73 129
194 145 276 6 33 15 60 19 60 4 0 12 -11 18 -25z m42 -117 c0 -42 -42 -108
-111 -172 -78 -74 -113 -89 -52 -23 51 55 100 127 124 183 20 45 39 51 39 12z
m-160 -30 c0 -69 -77 -165 -219 -275 -142 -110 -151 -95 -15 24 139 122 204
211 204 277 0 24 2 27 15 16 8 -7 15 -26 15 -42z m122 -120 c-27 -60 -98 -136
-186 -196 -99 -69 -106 -71 -106 -36 1 24 11 35 57 64 31 19 100 76 152 127
53 50 98 90 99 88 2 -2 -5 -23 -16 -47z m-52 -127 c0 -28 -82 -114 -153 -161
-34 -22 -58 -40 -53 -40 14 0 98 50 123 73 13 11 26 17 30 13 12 -12 -23 -60
-73 -99 -75 -57 -172 -88 -135 -43 7 8 14 30 15 48 2 18 4 38 5 44 0 7 34 33
74 58 39 25 92 64 117 86 25 21 46 40 48 40 1 0 2 -9 2 -19z m-104 -246 c-25
-38 -93 -83 -149 -100 -68 -20 -74 -19 -49 8 12 13 22 28 22 33 0 6 22 16 49
23 27 7 69 25 93 40 23 16 45 27 47 25 2 -2 -4 -15 -13 -29z m-52 -87 c-25
-45 -63 -59 -110 -41 -12 4 -1 12 42 28 72 27 77 28 68 13z m-378 -301 c38 -9
42 -13 52 -56 6 -25 8 -48 6 -50 -2 -3 -20 10 -39 29 l-34 33 -17 -36 c-16
-34 -16 -36 5 -66 14 -19 21 -42 19 -58 l-4 -28 -22 37 c-44 70 -140 89 -218
43 -54 -32 -65 -18 -30 35 26 40 26 40 90 39 46 -1 73 4 95 17 35 21 41 44 11
44 -11 0 -20 3 -20 6 0 14 36 33 50 27 8 -3 34 -10 56 -16z m-76 -184 c16 -16
34 -43 40 -58 12 -31 4 -105 -11 -105 -5 0 -9 -6 -9 -14 0 -17 -49 -58 -60
-51 -5 3 -11 1 -15 -5 -3 -5 -20 -10 -37 -10 -36 0 -100 28 -92 41 3 5 -1 9
-9 9 -36 0 -52 121 -21 167 46 70 157 84 214 26z m-190 -272 c0 -6 -4 -13 -10
-16 -6 -4 -10 -58 -10 -131 l0 -124 28 0 c15 0 38 7 50 16 31 21 37 13 22 -30
l-12 -36 -84 0 -85 0 8 38 c10 49 10 241 0 270 -8 21 -6 22 42 22 28 0 51 -4
51 -9z m390 -32 l0 -41 -24 16 c-14 9 -40 17 -58 18 -33 3 -33 3 -36 -44 -2
-27 -1 -48 1 -48 3 0 21 7 41 15 l36 15 0 -46 c0 -38 -3 -45 -16 -40 -9 3 -27
9 -40 12 -22 6 -24 3 -24 -27 1 -19 7 -52 15 -74 8 -22 15 -41 15 -42 0 -2
-21 -3 -47 -3 l-48 0 0 147 c0 82 -4 156 -9 166 -7 16 0 17 93 17 l101 0 0
-41z m294 35 c10 -4 16 -18 16 -36 0 -19 -4 -27 -11 -22 -46 28 -131 20 -163
-15 -24 -26 -36 -86 -25 -123 21 -76 86 -103 163 -69 l46 20 0 -29 c0 -23 -6
-30 -31 -39 -18 -6 -54 -11 -81 -11 -183 0 -231 235 -63 311 39 18 118 25 149
13z m-530 -276 c8 -14 7 -21 -6 -34 -30 -30 -75 9 -48 42 16 18 39 15 54 -8z
m230 0 c8 -14 7 -21 -6 -34 -30 -30 -75 9 -48 42 16 18 39 15 54 -8z m415 3
c15 -27 -9 -56 -37 -47 -24 8 -29 35 -10 54 17 17 36 15 47 -7z"/>
<path d="M2038 3103 c7 -3 16 -2 19 1 4 3 -2 6 -13 5 -11 0 -14 -3 -6 -6z"/>
<path d="M1955 3079 c-10 -14 -1 -21 19 -13 9 3 13 10 10 15 -7 12 -21 11 -29
-2z"/>
<path d="M1944 2771 c-70 -106 -30 -237 90 -298 31 -15 31 -15 -8 22 -74 73
-102 196 -62 273 25 49 12 51 -20 3z"/>
<path d="M1935 2100 c-19 -8 -19 -9 -1 -9 11 -1 28 -9 39 -18 20 -18 20 -18 2
10 -9 15 -18 27 -19 26 0 0 -10 -4 -21 -9z"/>
<path d="M1825 2078 c-5 -12 -21 -26 -35 -30 -21 -6 -20 -7 7 -3 20 3 36 -1
44 -11 8 -10 22 -14 40 -10 31 6 54 -14 47 -42 -3 -10 1 -23 8 -30 11 -10 12
-7 7 20 -3 18 -12 40 -19 48 -7 8 -14 29 -17 45 l-4 30 -8 -33 c-6 -26 -12
-32 -29 -30 -15 2 -22 12 -26 36 -5 32 -5 32 -15 10z"/>
<path d="M1843 1943 c9 -2 23 -2 30 0 6 3 -1 5 -18 5 -16 0 -22 -2 -12 -5z"/>
<path d="M1380 3600 c-490 -131 -846 -391 -1024 -747 -69 -138 -102 -251 -156
-539 -145 -769 -220 -1327 -194 -1441 l9 -41 104 69 c57 38 150 93 206 121
l103 52 5 316 c7 385 30 590 98 879 85 362 240 693 436 933 119 146 303 300
463 387 41 22 71 40 65 40 -5 0 -57 -13 -115 -29z"/>
<path d="M2989 3570 c224 -133 397 -301 548 -531 281 -430 423 -1028 423
-1786 l0 -182 100 -51 c54 -28 145 -82 202 -120 l103 -68 9 41 c20 85 -26 492
-110 976 -70 411 -134 729 -164 820 -111 339 -349 606 -695 779 -55 27 -144
66 -198 86 -89 33 -268 86 -292 86 -5 0 28 -23 74 -50z"/>
<path d="M1890 1379 c-636 -51 -1206 -206 -1631 -444 l-96 -54 -26 -88 c-56
-188 -77 -304 -77 -428 0 -109 12 -155 51 -200 83 -95 192 -70 444 100 214
144 531 289 812 370 125 37 360 82 487 94 141 14 531 14 672 0 127 -12 362
-57 487 -94 281 -81 598 -226 812 -370 252 -170 361 -195 444 -100 39 45 51
91 51 200 0 124 -21 240 -77 428 l-26 88 -96 54 c-576 322 -1484 503 -2231
444z"/>
<path d="M1860 678 c-446 -41 -961 -223 -1334 -472 -170 -113 -227 -140 -306
-144 -56 -3 -70 0 -100 20 -19 13 -45 41 -57 63 -16 28 -23 34 -23 20 0 -34
36 -99 68 -127 82 -69 192 -39 416 112 326 219 731 377 1162 452 119 21 160
23 504 23 344 0 385 -2 504 -23 431 -75 836 -233 1162 -452 224 -151 334 -181
416 -112 32 28 68 93 68 127 0 14 -7 8 -23 -20 -12 -22 -38 -50 -57 -63 -30
-20 -44 -23 -100 -20 -79 4 -136 31 -306 144 -382 255 -888 432 -1354 474
-135 12 -504 11 -640 -2z"/>
</g>
</svg>
