<svg id="Layer_1" data-name="Layer 1" xmlns="http://www.w3.org/2000/svg" viewBox="0 0 1069.23 240.14"><defs><style>.cls-1{fill:#333;}</style></defs><title>Katerra_Logos_Final</title><path class="cls-1" d="M385.8,60.09H361.59l-45.25,50.3h-5.58V60.09H297.08l-4.32,4.32V175l4.32,4.32h13.68v-51h4.95l45.75,51h24.18L331.91,120Z"/><path class="cls-1" d="M416.72,179.37l10.66-25.73h57.41l10.63,25.73H514.9L467,63.67l-5.32-3.56H450.58l-5.32,3.55-48,115.71Zm39.41-95.11,21.23,51.38H434.84Z"/><path class="cls-1" d="M603.37,60.14H516l-4.32,4.32V78.14h37.08V179.36h18V78.14H599l4.32-4.32Z"/><path class="cls-1" d="M753.79,179.37v-47.2H770l32,47.2h21.75l-33-48.71a36,36,0,0,0-10.23-70.54H740.11l-4.32,4.32V179.37Zm0-101.3h26.63a18.05,18.05,0,0,1,.2,36.1H753.79Z"/><path class="cls-1" d="M865.62,179.37v-47.2h16.2l32,47.2h21.75l-33-48.71a36,36,0,0,0-10.23-70.54H851.94l-4.32,4.32V179.37Zm0-101.3h26.64a18.05,18.05,0,0,1,.2,36.1H865.62Z"/><path class="cls-1" d="M971.05,179.37l10.66-25.73h57.41l10.63,25.73h19.47L1021.36,63.67,1016,60.11h-11.13l-5.32,3.55-48,115.71Zm39.41-95.11,21.23,51.38H989.17Z"/><path class="cls-1" d="M704.58,78.14v-18h-70l-4.32,4.32V175l4.32,4.32h70v-18H648.27V129h40.3V111h-40.3V78.14Z"/><path class="cls-1" d="M68.94,228.23H66.82L64.1,225.5V14.7L66.82,12h2.12l2.73,2.73V225.5Z"/><path class="cls-1" d="M36.84,203.74H34.72L32,201V39.49l2.73-2.73h2.12l2.73,2.73V201Z"/><path class="cls-1" d="M4.84,151.73H2.73L0,149V92.45L2.5,90H5.07l2.5,2.5V149Z"/><path class="cls-1" d="M201.6,213.89h-3.85l-81.56-81.56a16.38,16.38,0,0,1,0-23.14L198.3,27.08h3.85l1.5,1.5v3.85l-82.11,82.11a8.79,8.79,0,0,0,0,12.43l81.56,81.56v3.85Z"/><path class="cls-1" d="M225.27,186.81h-3.85l-54.46-54.46a16.38,16.38,0,0,1,0-23.14l54.36-54.36h3.85l1.5,1.5v3.85L172.3,114.57a8.79,8.79,0,0,0,0,12.43l54.46,54.46v3.85Z"/><path class="cls-1" d="M239.79,150.17h-3.85l-17.72-17.72a16.38,16.38,0,0,1,0-23.14L235.9,91.64h3.85l1.5,1.5V97l-17.68,17.68a8.79,8.79,0,0,0,0,12.43l17.72,17.72v3.85Z"/><path class="cls-1" d="M108.07,71.79a12.23,12.23,0,0,1-4.47-.86,12.39,12.39,0,0,1-7.69-11.59V2.73L98.63,0h2.12l2.73,2.73V59.67a4.52,4.52,0,0,0,7.72,3.2L166,8h3.85l1.5,1.5v3.85L116.54,68.22A11.92,11.92,0,0,1,108.07,71.79Z"/><path class="cls-1" d="M101.38,240.14H99.26l-2.73-2.73V182.52A12.09,12.09,0,0,1,117.17,174l53.68,53.7v3.85l-1.5,1.5H165.5l-53.68-53.7a4.52,4.52,0,0,0-7.71,3.2v54.89Z"/></svg>